<svg xmlns="http://www.w3.org/2000/svg" viewBox="0 0 100 100">
  <defs>
    <linearGradient id="rock" x1="0" y1="0" x2="0" y2="1">
      <stop offset="0" stop-color="#8a8a8a"/>
      <stop offset="1" stop-color="#5a5a5a"/>
    </linearGradient>
    <radialGradient id="nug" cx="0.35" cy="0.3" r="0.8">
      <stop offset="0" stop-color="#ffe680"/>
      <stop offset="0.6" stop-color="#f1c40f"/>
      <stop offset="1" stop-color="#c79b06"/>
    </radialGradient>
  </defs>
  <ellipse cx="50" cy="90" rx="32" ry="6" fill="#000000" opacity="0.18"/>
  <!-- rock pile -->
  <path d="M16 76 Q22 56 40 58 Q50 46 64 54 Q84 54 84 74 Q70 86 50 86 Q28 86 16 76Z" fill="url(#rock)"/>
  <path d="M16 76 Q50 86 84 74 Q70 82 50 84 Q30 82 16 76Z" fill="#000000" opacity="0.18"/>
  <!-- gold nuggets -->
  <circle cx="38" cy="62" r="11" fill="url(#nug)"/>
  <circle cx="59" cy="56" r="13" fill="url(#nug)"/>
  <circle cx="66" cy="71" r="8" fill="url(#nug)"/>
  <circle cx="46" cy="74" r="7" fill="url(#nug)"/>
  <!-- sparkles -->
  <circle cx="55" cy="51" r="3" fill="#fffbe6" opacity="0.9"/>
  <circle cx="34" cy="58" r="2" fill="#fffbe6" opacity="0.8"/>
  <path d="M70 46 l1.5 4 l4 1.5 l-4 1.5 l-1.5 4 l-1.5 -4 l-4 -1.5 l4 -1.5Z" fill="#ffffff" opacity="0.85"/>
</svg>
